
        <svg xmlns="http://www.w3.org/2000/svg" xmlns:xlink="http://www.w3.org/1999/xlink" version="1.1" width="3174.927113702624" 
        height="1151.0204081632653" viewBox="0 0 3174.927113702624 1151.0204081632653">
			<rect fill="#ffffff" width="3174.927113702624" height="1151.0204081632653"/>
			<g transform="scale(8.746355685131196) translate(10, 10)">
				<defs id="SvgjsDefs1364"></defs><g id="SvgjsG1365" featureKey="symbolFeature-0" transform="matrix(1.8915254237288137,0,0,1.8915254237288137,1.2169491525423726,-5.674576271186441)" fill="#005792"><g xmlns="http://www.w3.org/2000/svg" data-name="person reading"><path d="M9,19.736V22a4,4,0,0,0,8,0V19.736a7,7,0,1,0-8,0ZM15,22a2,2,0,0,1-4,0v-1.3a6.927,6.927,0,0,0,4,0ZM13,9a5,5,0,1,1-5,5A5.006,5.006,0,0,1,13,9Z"></path><rect x="12" y="3" width="2" height="2"></rect><rect x="7" y="4.34" width="2" height="2" transform="translate(-1.598 4.716) rotate(-30.002)"></rect><rect x="3.34" y="8" width="2" height="2" transform="translate(-5.624 8.259) rotate(-60.005)"></rect><rect x="2" y="13" width="2" height="2"></rect><rect x="3.34" y="18" width="2" height="2" transform="translate(-8.917 4.714) rotate(-29.995)"></rect><rect x="20.66" y="18" width="2" height="2" transform="translate(-5.624 28.261) rotate(-60.005)"></rect><rect x="22" y="13" width="2" height="2"></rect><rect x="20.66" y="8" width="2" height="2" transform="translate(-1.598 12.034) rotate(-29.995)"></rect><rect x="17" y="4.339" width="2" height="2" transform="translate(4.377 18.26) rotate(-60.005)"></rect><path d="M10.771,16.973a.994.994,0,0,0,.936-.266L13,15.414l1.293,1.293a1,1,0,0,0,1.655-.391l1-3-1.9-.632-.49,1.465-.855-.856a1,1,0,0,0-1.414,0l-.856.856-.489-1.465-1.9.632,1,3A1,1,0,0,0,10.771,16.973Z"></path><path d="M43.593,21.2l-.585,4.674a1,1,0,0,0,.513,1A.988.988,0,0,0,44,27a1,1,0,0,0,.641-.232l4.579-3.822c.42.036.849.054,1.28.054C56.841,23,62,18.962,62,14S56.841,5,50.5,5,39,9.038,39,14A8.481,8.481,0,0,0,43.593,21.2ZM50.5,7c5.238,0,9.5,3.14,9.5,7s-4.262,7-9.5,7a12.953,12.953,0,0,1-1.475-.083c-.038,0-.087-.007-.125-.007a.992.992,0,0,0-.64.233l-2.952,2.463.354-2.832a1,1,0,0,0-.54-1.016C42.541,18.45,41,16.3,41,14,41,10.14,45.262,7,50.5,7Z"></path><path d="M57,41V39a2,2,0,0,0-2-2H54V36a1,1,0,0,0-1-1H42.919A11,11,0,0,0,32.043,25h-.081A10.987,10.987,0,0,0,21.016,35H11a1,1,0,0,0-1,1v1H9a2,2,0,0,0-2,2v2a3,3,0,0,0-3,3v6a3,3,0,0,0,3,3h3v8a1,1,0,0,0,1,1H53a1,1,0,0,0,1-1V53h3a3,3,0,0,0,3-3V44A3,3,0,0,0,57,41Zm-2-2v2H54V39ZM25.646,29.59A8.94,8.94,0,0,1,31.963,27h.066A8.988,8.988,0,0,1,40.9,35H23.021A8.929,8.929,0,0,1,25.646,29.59ZM9,39h1v2H9ZM6,50V44a1,1,0,0,1,1-1h5v8H7A1,1,0,0,1,6,50Zm6,3h1a1,1,0,0,0,1-1V43a2,2,0,0,0-2-2V37H29V60H12Zm19,7V37h2V60Zm21,0H35V37H52v4a2,2,0,0,0-2,2v9a1,1,0,0,0,1,1h1Zm6-10a1,1,0,0,1-1,1H52V43h5a1,1,0,0,1,1,1Z"></path><rect x="40" y="39" width="7" height="2"></rect><rect x="45" y="13" width="2" height="2"></rect><rect x="49" y="13" width="3" height="2"></rect><rect x="54" y="13" width="2" height="2"></rect></g></g><g id="SvgjsG1366" featureKey="nameFeature-0" transform="matrix(1.1845998303651832,0,0,1.1845998303651832,139.94058759596615,3.801826339411827)" fill="#005792"><path d="M16.016 23.066 l0 0.078125 q0.15625 -0.078125 0.234375 -0.078125 q2.265625 0.99609375 2.265625 1.71875 q0.078125 0 0.234375 0.703125 l-0.078125 0 q0.15625 0.3125 0.15625 0.46875 l-0.078125 0 l0.078125 0.15625 q-0.078125 0.13671875 -0.078125 0.234375 l0.078125 0 q-0.7421875 2.734375 -2.8125 5.15625 q0 -0.078125 -0.078125 -0.078125 q-1.40625 1.71875 -1.953125 1.71875 q0 0.17578125 -1.40625 1.171875 q-1.328125 0.78125 -1.71875 0.78125 q-0.17578125 0 -2.5 1.015625 l0 -0.078125 q-1.11328125 0.390625 -1.953125 0.390625 l-0.078125 0 q-0.078125 0 -0.078125 -0.078125 q-0.234375 0.078125 -0.234375 0.15625 l-0.39063 -0.078125 l-0.70313 0 q-0.078125 0 -0.078125 -0.078125 q-0.078125 0 -0.078125 0.078125 q-0.703125 -0.078125 -1.484375 -0.390625 l0 0.078125 q-0.078125 0.13671875 -0.078125 0.3125 q0.078125 0 0.078125 0.078125 q-0.05859375 0 -1.015625 1.796875 l0 0.078125 l0.078125 0.15625 q-0.25390625 0 -1.09375 1.953125 q-0.13671875 0.46875 -0.625 1.25 q-1.40625 2.734375 -2.8125 5.859375 q-0.859375 1.46484375 -1.171875 3.203125 l-0.54688 0.39063 l0 -0.15625 l-0.15625 0.078125 l-0.15625 -0.078125 q-0.13671875 0.078125 -0.234375 0.078125 q0 -0.1171875 -0.234375 -0.234375 q0 0.078125 -0.078125 0.078125 q0 -0.078125 -0.078125 -0.078125 l0 0.078125 q-0.546875 0 -0.78125 -1.640625 q-0.078125 0 -0.234375 -0.3125 q0 -0.546875 0.78125 -3.59375 q-0.078125 0 -0.078125 -0.078125 q0.234375 -0.1171875 0.625 -1.5625 q2.421875 -6.15234375 3.515625 -8.671875 q2.3046875 -4.98046875 4.84375 -9.0625 l0 -0.15625 l-0.15625 0 l0 -0.078125 q0.15625 0 0.15625 -0.234375 l0.078125 0 q0 0.15625 0.078125 0.15625 q0.390625 0 0.390625 -0.15625 q0.99609375 0.41015625 1.09375 0.625 q0.56640625 0 1.015625 1.875 q-0.078125 0 -0.078125 0.078125 l0.078125 0 l-0.078125 0.15625 l0 0.15625 l0.078125 0.15625 q-0.15625 0.01953125 -0.15625 0.15625 l0 0.15625 q0.0390625 0.15625 0.15625 0.15625 q1.34765625 -1.5625 2.890625 -2.8125 q0 0.078125 0.078125 0.078125 q0 -0.5078125 3.75 -2.5 q1.46484375 -0.78125 2.8125 -0.78125 z M15.313 25.566000000000003 l0 -0.078125 l-1.1719 0.46875 q0 -0.078125 -0.078125 -0.078125 q0 0.17578125 -0.9375 0.46875 q-2.03125 1.42578125 -2.5 1.484375 q-1.5234375 1.2109375 -3.671875 3.359375 l0 -0.078125 q0.15625 -0.1953125 0.15625 -0.234375 l-0.078125 0 l-2.3438 3.0469 q-0.15625 0.25390625 -0.15625 0.390625 l0.625 0 l0.15625 -0.078125 l0 0.078125 q4.0625 -0.7421875 7.1875 -3.4375 q0.76171875 -0.5859375 1.875 -2.03125 q1.953125 -2.8125 1.953125 -3.515625 q-0.078125 0 -0.078125 0.078125 q-0.078125 0 -0.078125 -0.078125 z M24.853553125 40 q-1.2890625 -1.328125 -1.2890625 -2.67578125 l0 -0.19531 q0 -0.5078125 -0.1953125 -0.5078125 q0.01953125 -0.1171875 0.09765625 -0.1171875 q-0.17578125 -1.50390625 -0.17578125 -2.65625 q0 -0.44921875 0.01953125 -0.859375 q0.1953125 -3.8671875 4.2578125 -12.890625 q2.96875 -6.97265625 4.00390625 -9.2578125 l-0.058594 -0.25391 l0.039063 -0.50781 q0.25390625 0 0.4296875 -0.625 l0.3125 0 l0.15625 0.11719 l0 -0.11719 l0.37109 0.25391 l0.48828 -0.13672 q0 0.234375 0.859375 1.015625 q0.48828125 1.40625 0.48828125 1.9140625 l-0.039063 0.58594 q-0.078125 1.23046875 -1.796875 4.62890625 q-0.4296875 0.5078125 -0.99609375 2.01171875 q-0.05859375 0 -3.046875 6.62109375 q-0.1953125 0.13671875 -1.30859375 3.0078125 q-1.6796875 4.0234375 -1.8359375 6.26953125 l-0.019531 0.11719 q0.37109375 0 1.23046875 -0.87890625 l0.46875 0 l0 0.11719 q0 0.21484375 0.05859375 0.390625 q-0.37109375 0 -0.56640625 1.25 q0.05859375 0.234375 0.05859375 0.37109375 q-0.1171875 0 -0.4296875 0.625 l0 0.039063 q0 0.21484375 0.21484375 0.21484375 q-0.01953125 0.25390625 -0.25390625 0.25390625 l0.058594 0.25391 q-0.15625 0.0390625 -0.17578125 0.234375 l0.058594 0.25391 q-0.64453125 1.1328125 -1.484375 1.1328125 z M37.0508 26.641 l0 0.078125 l-0.078125 0.15625 l0.078125 0 l0.23438 -0.3125 l0 -0.078125 z M34.47266 29.844 q0 0.078125 -0.078125 0.234375 l0.078125 0 l0.078125 -0.15625 l0 -0.078125 l-0.078125 0 z M35.5664 28.436999999999998 l-0.15625 0.23438 l0.078125 0 l0.15625 -0.23438 l-0.078125 0 z M36.8164 26.953 l-0.39063 0.46875 l0 0.078125 q0.13671875 0 0.46875 -0.546875 l-0.078125 0 z M35.1758 34.4531 q1.3671875 -0.91796875 2.421875 -2.265625 l2.5781 -2.7344 q2.51953125 -2.71484375 2.890625 -2.734375 q0 -0.17578125 1.5625 -1.484375 q0.078125 -0.4296875 0.078125 -0.703125 l0 -0.23438 l-0.23438 0 l-0.15625 0.078125 l0 -0.078125 q-1.328125 0.3515625 -1.328125 0.78125 q-0.44921875 0 -2.1875 1.5625 q-2.578125 2.4609375 -3.984375 4.375 q-1.640625 2.55859375 -1.640625 3.4375 z M35.8008 28.047 l0 0.15625 q0.1171875 0 0.3125 -0.3125 l0 -0.078125 z M37.0508 26.641 l0 -0.078125 q0.546875 -0.625 0.625 -0.625 l0 0.15625 l0.15625 -0.078125 l-0.078125 -0.15625 q0 -0.1171875 0.234375 -0.234375 l0 0.078125 l-0.078125 0.15625 l0.15625 0 q0 -0.13671875 0.859375 -0.9375 l-0.078125 0 q0.078125 -0.15625 0.078125 -0.234375 l0.078125 0 l0 0.15625 l0.078125 0 q0 -0.52734375 0.703125 -0.703125 l0.23438 -0.3125 l-0.078125 0 q0 0.1171875 -0.234375 0.234375 l-0.078125 0 l0.46875 -0.54688 q-0.078125 0 -0.078125 -0.078125 q0.234375 0 0.234375 -0.15625 l0.078125 0 l0.15625 0.078125 l0 -0.23438 l0.078125 0 l0 0.15625 l0.078125 0 l0 -0.23438 l0.078125 0 q0 0.078125 0.078125 0.234375 q0.15625 -0.078125 0.234375 -0.078125 l-0.078125 -0.15625 q0.859375 -0.33203125 0.859375 -0.46875 l0 -0.078125 q1.875 -0.1171875 1.875 -0.234375 l0.15625 0.078125 l0.46875 0 l0.15625 -0.078125 l0 0.078125 l0.15625 -0.078125 l0.46875 0 q0.95703125 0 2.1875 1.5625 l0.078125 0 l0.39063 -0.078125 l0 0.078125 l-0.078125 0.15625 l0.15625 0 q0.078125 0 0.078125 -0.078125 q0.703125 0.1171875 1.40625 1.171875 l0 0.23438 q-0.29296875 1.15234375 -2.890625 5.9375 q-2.265625 4.8046875 -2.265625 7.8125 l0 0.46875 q0 0.546875 0.234375 1.171875 q-0.078125 0.15625 -0.078125 0.234375 q0 0.13671875 0.15625 0.46875 q-0.1171875 0 -0.625 0.46875 l-0.078125 0 q-0.078125 0 -0.078125 -0.078125 l-0.15625 0.078125 q-0.25390625 -0.15625 -0.390625 -0.15625 q0 0.078125 -0.078125 0.078125 q-1.328125 -1.2109375 -1.640625 -2.734375 l0 -0.15625 l0.078125 -0.15625 l-0.078125 -0.46875 l0 -0.15625 l-0.15625 0 l0.078125 -0.15625 l0 -0.39063 q0 -1.8359375 0.46875 -2.96875 l-0.078125 -0.15625 q0.625 -2.109375 0.9375 -2.578125 l-0.078125 -0.15625 q0 -0.234375 0.390625 -1.015625 l-0.078125 0 q-1.15234375 1.0546875 -4.6875 5.078125 q-1.93359375 1.9921875 -2.734375 2.109375 q-1.5625 0 -2.34375 -1.5625 q-0.390625 -0.234375 -0.625 -1.875 l0 -0.078125 q0.29296875 -1.25 0.390625 -1.25 l0 -0.078125 l-0.078125 0 q0.72265625 -2.32421875 1.953125 -3.671875 l0 0.078125 l-0.15625 0.23438 l0.078125 0 l0.46875 -0.625 l-0.15625 0.078125 l-0.078125 0 l0 -0.078125 q0.46875 -0.7421875 0.859375 -1.015625 l0 -0.078125 q0.2734375 -0.44921875 1.25 -1.328125 z M32.6758 32.2656 l0.23438 0 l0 0.15625 l-0.15625 -0.078125 l0 0.15625 l-0.078125 0 l0 -0.23438 z M33.37891 31.1719 l0 0.078125 q-0.1171875 0.3125 -0.234375 0.3125 l0 -0.078125 q0.1171875 -0.3125 0.234375 -0.3125 z M33.53516 30.8594 l0 0.23438 l-0.15625 0 l0 -0.078125 q0.01953125 -0.15625 0.15625 -0.15625 z M34.003906 30.0781 l0 0.078125 q0 0.15625 -0.15625 0.15625 l0 -0.078125 q0.01953125 -0.15625 0.15625 -0.15625 z M34.39453 29.531 l0 0.078125 q0 0.1171875 -0.234375 0.234375 l0 -0.078125 q0 -0.1171875 0.234375 -0.234375 z M34.94141 29.141 l0 0.23438 l-0.15625 0 l0 -0.078125 q0.01953125 -0.15625 0.15625 -0.15625 z M34.78516 28.984 l0 0.078125 q0 0.1171875 -0.234375 0.234375 l0 -0.078125 q0 -0.1171875 0.234375 -0.234375 z M35.1758 28.436999999999998 l0 0.078125 q-0.09765625 0.3125 -0.390625 0.46875 l0 -0.078125 q0.29296875 -0.46875 0.390625 -0.46875 z M35.4883 28.047 l0 0.078125 q-0.15625 0.1953125 -0.15625 0.3125 l-0.15625 0 q0.15625 -0.3515625 0.3125 -0.390625 z M37.1289 26.25 l0 0.078125 q-1.171875 1.328125 -1.25 1.328125 l0 -0.078125 q1.03515625 -1.328125 1.25 -1.328125 z M38.3789 25.234 l0.078125 0 q0 0.1171875 -0.234375 0.234375 l0 -0.078125 q0.01953125 -0.15625 0.15625 -0.15625 z M38.6914 24.609 l0.078125 0 l0 0.15625 q-0.21484375 0 -1.09375 1.015625 l-0.3125 0.23438 l0 -0.078125 q1.2109375 -1.328125 1.328125 -1.328125 z M39.3945 23.828 l0.078125 0 l0 0.23438 l-0.3125 0.23438 l0 -0.078125 q0.234375 -0.25390625 0.234375 -0.390625 z M58.310528125 16.562 l0.078125 0 l0.625 0.3125 q0.13671875 -0.078125 0.3125 -0.078125 l0.625 0.39063 l0.15625 -0.078125 q0.7421875 1.07421875 0.78125 1.484375 q-0.1953125 0.625 -0.703125 0.625 q-0.41015625 -0.0390625 -1.25 -0.625 q-0.2734375 0 -0.625 -1.25 q-0.05859375 0 -0.234375 -0.234375 z M56.044928125 22.969 l0.078125 0 l0 0.15625 q0.078125 0 0.078125 -0.078125 q2.1875 0.60546875 2.1875 1.796875 q0.078125 0 0.078125 0.46875 q-3.02734375 4.82421875 -4.84375 8.59375 q0 0.17578125 -0.703125 1.5625 q-0.859375 2.91015625 -0.859375 2.96875 q0.3125 0.64453125 0.390625 1.171875 q-0.1171875 0 -0.234375 0.3125 l-0.15625 -0.078125 l-0.23438 0 l0 0.15625 q-1.015625 -0.29296875 -1.015625 -0.703125 q-0.078125 0 -0.078125 0.078125 q-1.09375 -0.83984375 -1.09375 -2.265625 q-0.13671875 0 -0.15625 -0.9375 q0 -2.109375 2.65625 -7.1875 q1.69921875 -3.2421875 3.359375 -5.3125 z M76.426 22.129 l0.3125 0 q0.15625 0.17578125 1.25 0.625 q0 0.13671875 0.625 0.625 q0.625 0.5078125 0.625 0.859375 l0 0.39063 q0 1.1328125 -3.046875 5.390625 q-2.44140625 3.30078125 -5.546875 8.515625 q-0.703125 1.50390625 -0.703125 2.5 q0.01953125 0.1953125 0.390625 0.3125 q0.09765625 0 1.09375 -0.3125 q0 0.078125 0.078125 0.078125 l0.078125 -0.15625 l0.15625 0.078125 l2.2656 -1.0156 l0 -0.078125 l0.078125 0 q0.078125 0 0.078125 0.078125 l1.6406 -0.78125 q0.46875 -0.1171875 0.46875 -0.3125 l0.15625 0.078125 q0.546875 -0.44921875 1.875 -0.9375 q0 -0.09765625 0.078125 -0.234375 l0.15625 0.078125 q1.640625 -1.09375 1.796875 -1.09375 q0 -0.1171875 1.09375 -0.625 q0.01953125 -0.15625 0.15625 -0.15625 l0.078125 0 l0 0.15625 l0.078125 0 l0 -0.23438 l0.15625 0 l0 0.15625 l0.15625 -0.078125 l0 0.15625 q-0.1171875 0 -0.3125 0.3125 l0.078125 0.15625 l0 0.078125 q-0.234375 0 -0.390625 0.703125 q0.078125 0 0.078125 0.078125 q-0.29296875 0 -0.859375 0.9375 l-0.078125 0 l0.078125 0.15625 q-0.13671875 0.25390625 -1.484375 1.25 q0 0.078125 0.078125 0.078125 q-0.21484375 0.44921875 -1.640625 1.171875 q-0.33203125 0.3515625 -2.96875 1.71875 l0 -0.078125 q-0.8203125 0.56640625 -2.1875 0.9375 q-1.09375 0.09765625 -1.09375 0.234375 q-1.484375 -0.15625 -2.421875 -0.625 q-1.30859375 -1.03515625 -1.796875 -3.28125 q-0.15625 -0.76171875 -0.15625 -1.171875 q0.1171875 -0.703125 0.234375 -0.703125 l-0.078125 -0.15625 l0 -0.078125 q0.8984375 -2.34375 1.796875 -3.359375 q1.58203125 -2.7734375 2.96875 -4.609375 l2.2656 -3.5156 l0 -0.078125 l-0.078125 0 q-2.28515625 1.1328125 -5.390625 3.984375 q-2.7734375 2.75390625 -5.078125 5.625 q-1.62109375 1.875 -1.875 1.875 l-0.078125 0 l0 -0.078125 q-0.078125 0 -0.078125 0.078125 l-0.39063 -0.078125 l-0.078125 0 l-0.15625 0.078125 l0 -0.15625 l-0.15625 0 l-0.15625 0.078125 q-1.07421875 -0.9765625 -1.171875 -1.484375 l-0.078125 0 q0 -0.078125 0.078125 -0.078125 l-0.078125 -0.78125 q0 -0.87890625 0.78125 -2.96875 q0.29296875 -0.29296875 1.015625 -1.71875 q1.93359375 -3.26171875 2.65625 -4.296875 q0.9375 -1.34765625 0.9375 -1.640625 l0.15625 0 l0.15625 0.078125 q0.01953125 -0.15625 0.15625 -0.15625 q0.29296875 0.09765625 0.703125 0.390625 l0.23438 0 q1.09375 0.6640625 1.09375 1.953125 q0.390625 -0.234375 0.625 -0.234375 l-0.078125 -0.15625 q0.41015625 -0.078125 1.015625 -0.78125 q0.78125 -0.33203125 0.78125 -0.625 l0.15625 0.078125 q1.73828125 -1.34765625 4.6875 -2.65625 q1.1328125 -0.546875 1.953125 -0.546875 z M101.67968125 23.125 q0.44921875 0.234375 0.625 0.234375 l0.23438 0 q0 0.17578125 0.546875 0.390625 q0.6640625 0.72265625 0.78125 1.5625 l0 0.625 q-0.234375 0.76171875 -0.234375 0.859375 l0.078125 0 q4.140625 -3.203125 7.734375 -3.203125 q1.97265625 0 3.515625 1.484375 q0 0.17578125 0.078125 0.3125 q-0.2734375 0.078125 -0.3125 0.078125 l0.078125 0.15625 l-0.078125 0 l0.078125 0.15625 q0 0.15625 -0.625 0.234375 q-0.390625 -0.078125 -0.390625 -0.15625 l-0.15625 0.078125 q-0.7421875 -0.15625 -1.171875 -0.15625 q-0.078125 0 -0.078125 0.078125 q-0.078125 0 -0.078125 -0.078125 q-2.3828125 0 -6.328125 2.8125 q-3.1640625 2.890625 -3.671875 4.140625 q-0.3125 0.078125 -1.25 1.953125 q-0.390625 1.7578125 -0.78125 2.34375 q-0.68359375 2.109375 -1.09375 2.109375 q0 0.5859375 -1.40625 0.859375 q0 -0.17578125 -0.625 -0.390625 l0 -0.078125 q0.078125 0 0.078125 -0.078125 q-0.33203125 0 -0.703125 -1.953125 q-0.13671875 0 -0.15625 -0.390625 l0 -0.15625 l0.15625 0.078125 q2.0703125 -3.41796875 2.1875 -4.53125 q0.078125 0 0.234375 -0.625 l-0.078125 0 q0.234375 -0.390625 0.234375 -0.625 l-0.078125 -0.15625 l0.15625 -0.078125 q0 0.078125 0.078125 0.078125 q0 -0.5078125 1.09375 -3.984375 q0.390625 -1.25 1.015625 -2.890625 q0.1953125 -1.015625 0.3125 -1.09375 z M121.162109375 22.266 l0.15625 0.078125 l0.39063 0 q0.078125 0 0.078125 -0.078125 q0.52734375 0.234375 0.859375 0.234375 q0.078125 0 0.078125 -0.078125 l0.3125 0.15625 q0.15625 -0.078125 0.234375 -0.078125 q2.03125 1.09375 2.03125 2.03125 q0.234375 0.625 0.3125 0.625 q0 0.15625 0.78125 0.15625 l0.625 0 l0.39063 0.078125 l0 -0.078125 l0.625 0.15625 q0 -0.078125 0.078125 -0.078125 l0 0.078125 l0.15625 -0.078125 l0.23438 0 l0.15625 0.078125 q0 -0.078125 0.078125 -0.078125 q0 0.078125 0.078125 0.078125 l0 -0.078125 q0.21484375 0.05859375 0.9375 0.15625 l0 -0.078125 q4.2578125 0.4296875 4.6875 1.015625 q-0.1171875 0 -0.234375 0.15625 l-0.23438 0 q0 0.13671875 -0.703125 0.3125 l0 0.078125 q-0.15625 -0.078125 -0.234375 -0.078125 l-0.3125 0.15625 q0 -0.078125 -0.078125 -0.078125 l0 0.078125 q0.15625 0.01953125 0.15625 0.15625 q-0.78125 -0.078125 -1.171875 -0.078125 l-2.4219 0 l-0.54688 0.078125 l0 -0.078125 l-0.15625 0.078125 l-1.25 0 q-0.078125 0 -0.078125 -0.078125 q-0.078125 0 -0.078125 0.078125 l-0.78125 -0.078125 l-0.39063 0 q0 0.234375 -0.078125 0.546875 q0.078125 0 0.078125 0.078125 l-0.078125 0 l0.078125 0.15625 l0 0.078125 q0 0.078125 -0.078125 0.078125 q0.078125 0.46875 0.15625 0.46875 l-0.078125 0.15625 l0 0.54688 q0 0.078125 0.078125 0.078125 l-0.078125 0.15625 l0 0.85938 q0 0.078125 -0.078125 0.078125 q0.078125 0.15625 0.078125 0.234375 l-0.078125 0.15625 l0.078125 0.15625 q-0.078125 0.13671875 -0.078125 0.3125 l0 0.078125 l0.23438 0 q-0.234375 2.3828125 -0.9375 3.984375 q-1.62109375 3.3203125 -3.515625 4.140625 q-0.99609375 0.46875 -1.875 0.46875 l-0.85938 0 q-1.30859375 -0.1171875 -2.578125 -0.9375 q-1.1328125 -1.07421875 -1.5625 -2.5 q-0.234375 -0.60546875 -0.234375 -1.09375 l0 -0.15625 q0 -2.55859375 2.578125 -7.109375 q0.9765625 -1.69921875 2.03125 -2.890625 q0 -0.09765625 0.390625 -0.46875 q0 -0.0390625 0.46875 -0.546875 q0 -0.390625 -0.15625 -0.390625 q0 -1.25 1.015625 -1.5625 q0.3125 0 0.3125 -0.078125 z M118.037109375 34.2187 l0.078125 0 q-0.15625 0.25390625 -0.15625 0.390625 q0.078125 0 0.078125 0.078125 q-0.1953125 0 -0.390625 2.265625 q0.15625 0.703125 0.234375 0.703125 q1.4453125 0 2.578125 -1.5625 q0.37109375 -0.546875 0.46875 -0.546875 l-0.078125 -0.15625 q0.21484375 -0.46875 0.3125 -0.46875 q0 0.078125 0.078125 0.078125 l0.15625 -0.3125 q-0.078125 -0.15625 -0.078125 -0.234375 l0.15625 0.078125 q0.625 -1.2109375 0.625 -1.875 q0.05859375 -0.390625 0.234375 -0.390625 l0 -0.46875 q0.3125 0 0.625 -4.296875 q-0.078125 -0.13671875 -0.078125 -0.3125 l0.078125 -0.15625 q0 -0.21484375 -0.703125 -0.46875 l-0.15625 0.078125 q-0.1953125 -0.15625 -0.234375 -0.15625 l-0.078125 0 q-0.3125 0.25390625 -1.796875 3.359375 q-1.34765625 2.4609375 -1.953125 4.375 z M126.005909375 30.9375 l0.078125 0 l0 0.39063 l-0.078125 0 l0 -0.39063 z M121.318409375 34.6094 l0 0.078125 q-0.078125 0.15625 -0.078125 0.234375 l-0.078125 0 l0 -0.23438 z M147.3439375 19.531 q0.078125 0 0.078125 0.078125 l0.15625 -0.078125 l0.078125 0 q0.21484375 0 0.46875 0.15625 q0.15625 -0.078125 0.234375 -0.078125 l0.078125 0.15625 l0.15625 -0.078125 q1.0546875 0.3125 1.40625 0.859375 q0.3125 0.60546875 0.3125 0.78125 q0 0.41015625 -1.015625 3.515625 l0 0.15625 q0.078125 0 0.078125 0.078125 q-0.2734375 0 -0.46875 2.109375 q0.078125 0 0.078125 0.078125 q-0.15625 0.078125 -0.234375 0.078125 q0 0.078125 0.078125 0.078125 q-0.234375 0.9375 -0.859375 0.9375 q-0.078125 0 -0.078125 0.078125 l-0.39063 -0.078125 l-0.39063 0 l0 -0.15625 l-0.15625 0.078125 q0 -0.15625 -0.15625 -0.15625 q0 0.078125 -0.078125 0.078125 q-0.234375 -0.33203125 -0.234375 -0.46875 l-0.078125 0 l-0.15625 0.078125 l0 -0.3125 q0.3125 0 0.3125 -1.875 q0.078125 0 0.15625 -0.546875 l-0.078125 0 q0.17578125 -0.21484375 0.390625 -1.953125 l-0.078125 0 q-2.32421875 1.40625 -4.6875 3.828125 q-0.68359375 0.60546875 -1.40625 1.5625 q-0.1171875 0 -2.34375 2.421875 q-2.51953125 3.41796875 -2.578125 3.90625 l0 0.23438 l-0.15625 -0.078125 q0 0.2734375 -0.390625 1.09375 q0.078125 0 0.078125 0.078125 q-0.078125 0 -0.078125 0.078125 q0.078125 0 0.078125 0.078125 l-0.15625 0.078125 q0 1.171875 0.859375 1.171875 q0.6640625 0.078125 1.09375 0.078125 l0.3125 0 q2.0703125 0 6.015625 -2.734375 q0 -0.234375 1.171875 -1.015625 l0.15625 0.078125 l0.15625 -0.078125 l0 0.15625 q0 0.078125 -0.078125 0.078125 l0.078125 0.15625 l-0.23438 0.39063 q0.078125 0 0.078125 0.078125 q-0.15625 0.01953125 -0.15625 0.15625 l0 0.23438 l0.15625 0 q0 0.1171875 -0.234375 0.234375 l0.078125 0.15625 l-0.23438 0.3125 q0 0.15625 0.234375 0.15625 l0 0.078125 q-0.546875 0.44921875 -1.171875 1.171875 l-0.15625 0 l0 0.078125 l0.078125 0 q0.15625 -0.078125 0.234375 -0.078125 l0 0.15625 q-0.2734375 0 -1.953125 1.40625 l-1.7969 0.85938 q-0.15625 0 -0.15625 0.15625 q-0.078125 0 -0.078125 -0.078125 q-0.56640625 0.234375 -1.5625 0.234375 l-0.23438 0 q-4.19921875 0 -5.078125 -4.140625 q-0.09765625 0 -0.15625 -0.703125 l0.078125 -0.15625 q-0.078125 -0.15625 -0.078125 -0.234375 q0.09765625 -0.546875 0.234375 -0.546875 q0 -0.078125 -0.078125 -0.078125 q0 -0.25390625 0.9375 -1.953125 l0.078125 0 q0 0.078125 0.078125 0.078125 l-0.078125 -0.15625 q0.4296875 -0.87890625 0.78125 -1.09375 l0 0.078125 q0.2734375 -0.05859375 0.46875 -0.46875 l-0.078125 0 l-0.15625 0.078125 l0 -0.15625 q2.01171875 -2.48046875 3.671875 -4.140625 q1.640625 -1.6015625 1.640625 -1.640625 q0.17578125 -0.05859375 2.34375 -2.03125 q3.02734375 -2.3828125 4.765625 -3.203125 z M160.869171875 15.527000000000001 q1.54296875 0.390625 1.640625 0.546875 q0 0.13671875 0.46875 0.46875 q0.3125 0.64453125 0.3125 1.171875 q-0.44921875 1.328125 -2.421875 3.75 q-1.2890625 2.01171875 -2.03125 3.515625 q-0.859375 1.2109375 -1.40625 2.734375 q-0.1953125 0.3125 -0.3125 0.3125 q0 0.078125 0.078125 0.078125 q-0.3125 0.4296875 -0.703125 1.40625 l0.078125 0 q0.3125 -0.21484375 0.3125 -0.3125 q0.078125 0 0.078125 0.078125 q0.15625 -0.078125 0.234375 -0.078125 l0 -0.078125 l-0.15625 0 l0 -0.078125 q0.21484375 0 0.390625 -0.234375 l0 -0.078125 l0.15625 0.078125 q0 -0.234375 1.015625 -0.78125 q0 -0.13671875 0.703125 -0.546875 q0 -0.078125 0.078125 -0.078125 q0 0.078125 0.078125 0.078125 q0.41015625 -0.4296875 1.171875 -0.9375 q0.9375 -0.56640625 0.9375 -0.859375 q0.3125 -0.05859375 0.3125 -0.234375 l0.078125 0 l0 0.15625 q1.5234375 -1.11328125 1.71875 -1.40625 l-0.15625 0.078125 l-0.078125 0 q0 -0.05859375 0.234375 -0.234375 l0.15625 0.078125 q0.546875 -0.25390625 1.796875 -1.640625 q1.85546875 -1.40625 2.5 -1.40625 l0.3125 0.15625 q0.01953125 -0.15625 0.15625 -0.15625 q0.1953125 0.3125 0.390625 0.3125 q0.09765625 0.46875 0.390625 0.46875 l-0.078125 0.15625 q0.3125 0.33203125 0.3125 0.859375 q0 0.13671875 -0.15625 0.46875 q0.078125 0 0.078125 0.078125 q-1.5625 0.95703125 -3.59375 2.734375 q-1.73828125 1.26953125 -2.03125 1.640625 q-0.33203125 0 -1.015625 0.703125 q-0.5078125 0.1953125 -4.921875 3.75 q-0.91796875 0.78125 -1.484375 1.640625 l0.078125 0 q0.7421875 0 3.828125 -1.171875 l0 0.078125 q4.19921875 -1.5625 6.953125 -2.734375 q0.1171875 0 0.3125 -0.15625 l0.15625 0.078125 q0 -0.234375 0.703125 -0.390625 q0 0.078125 0.078125 0.078125 l0 -0.078125 q-0.078125 0 -0.078125 -0.078125 q0.234375 0 2.65625 -0.9375 q0.15625 0.078125 0.234375 0.078125 l-0.078125 0.15625 q0.078125 0 0.078125 0.078125 q-0.41015625 0 -1.328125 1.25 q-0.29296875 0.234375 -0.546875 0.234375 l0 0.15625 l0.078125 0.15625 l-0.3125 0.23438 l0.078125 0.15625 l0 0.078125 q-0.44921875 0 -1.484375 0.859375 q-0.078125 0 -0.078125 0.15625 l-0.078125 0 l-0.15625 -0.078125 q0 0.234375 -0.15625 0.234375 q0 -0.078125 -0.078125 -0.078125 l-0.078125 0.15625 q0.078125 0 0.078125 0.078125 l-0.078125 0 l-0.15625 -0.078125 q0 0.48828125 -1.953125 1.09375 q0 0.15625 -0.703125 0.390625 q0 0.15625 -0.15625 0.15625 q0 -0.078125 -0.078125 -0.078125 q-2.16796875 1.4453125 -4.453125 2.109375 q-1.73828125 0.546875 -3.125 0.546875 l-0.3125 0 q-1.46484375 0 -2.34375 -1.40625 l-0.15625 0 q-0.859375 2.3046875 -1.25 4.453125 l0.15625 0 l-0.46875 1.875 l0 0.15625 q0 0.078125 0.078125 0.078125 l-0.078125 0.15625 l0 0.9375 q-0.390625 0.09765625 -0.390625 0.3125 l0 0.15625 q-0.078125 0 -0.078125 -0.078125 l-0.15625 0.078125 l-0.15625 -0.078125 l0 0.078125 l-0.15625 -0.078125 l-0.078125 0 l-0.15625 0.078125 q0 -0.09765625 -0.703125 -0.703125 l-0.70313 -1.7969 l0.078125 -0.15625 l0 -0.9375 q0 -1.40625 0.390625 -3.203125 q-0.078125 0 -0.078125 -0.078125 q0.17578125 0 0.234375 -0.703125 l0.078125 0 l0 0.23438 l0.078125 0 l0 -0.23438 q-0.078125 -0.15625 -0.078125 -0.234375 l0.15625 0.078125 l-0.078125 -0.3125 q0.078125 -0.546875 0.234375 -0.546875 q0 0.078125 0.078125 0.078125 l0 -0.078125 q-0.078125 -0.15625 -0.078125 -0.234375 q0.078125 -0.15625 0.078125 -0.234375 l0.15625 0.078125 l0 -0.078125 l-0.078125 -0.15625 q0.234375 0 0.546875 -1.171875 q-0.078125 0 -0.078125 -0.078125 q0.17578125 0 0.390625 -0.625 l1.3281 -3.0469 q2.05078125 -4.16015625 2.265625 -4.375 q0 -0.13671875 0.9375 -1.953125 q0 -0.1953125 1.09375 -1.875 q0 -0.09765625 0.3125 -0.625 l-0.078125 0 q0.078125 -0.15625 0.078125 -0.234375 l0.15625 0.078125 q0.05859375 -0.390625 0.234375 -0.390625 l-0.078125 -0.15625 q0.01953125 -0.15625 0.15625 -0.15625 q0 0.078125 0.078125 0.078125 l0 -0.3125 q0.078125 0 0.234375 -0.078125 l-0.078125 -0.15625 l0 -0.078125 l0.15625 0.078125 l-0.078125 -0.15625 q0 -0.234375 0.3125 -0.234375 l-0.078125 -0.15625 l0.85938 -1.3281 q1.19140625 -1.640625 1.328125 -1.640625 z M163.291171875 24.355 l0 0.078125 q0 0.15625 -0.15625 0.15625 l0 -0.078125 q0.01953125 -0.15625 0.15625 -0.15625 z M162.588171875 24.902 l0.078125 0 q0 0.15625 -0.15625 0.15625 l-0.078125 0 q0.01953125 -0.15625 0.15625 -0.15625 z M162.353171875 25.137 l0 0.15625 q-0.1171875 0 -0.3125 0.15625 l0 -0.078125 q0 -0.1171875 0.3125 -0.234375 z"></path></g><g id="SvgjsG1367" featureKey="sloganFeature-0" transform="matrix(1.1470919638443768,0,0,1.1470919638443768,130.40757244613926,70.71799680868915)" fill="#005792"><path d="M6.18 7.32 c1.82 0 3.76 0.7 3.76 2.76 c0 0.48 -0.32 0.7 -0.66 0.7 s-0.7 -0.24 -0.7 -0.7 c0 -0.16 -0.1 -1.46 -2.4 -1.46 c-1.82 0 -2.62 0.72 -2.62 2.44 l0 4.82 c0 1.74 0.98 2.28 2.62 2.28 c1.66 0 2.58 -0.68 2.58 -2.3 c0 -0.46 0.34 -0.68 0.66 -0.68 c0.34 0 0.66 0.22 0.66 0.68 c0 2.7 -1.5 3.6 -3.9 3.6 c-2.6 0 -3.92 -0.96 -3.92 -3.58 l0 -4.82 c0 -2.84 1.42 -3.74 3.92 -3.74 z M20.612000000000002 15.86 l0 -4.96 c0 -2.4 1.24 -3.68 3.64 -3.68 l0.52 0 c2.38 0 3.64 1.28 3.64 3.68 l0 4.96 c0 2.2 -1.46 3.64 -3.64 3.64 l-0.52 0 c-2.22 0 -3.64 -1.46 -3.64 -3.64 z M24.252000000000002 18.16 l0.52 0 c1.44 0 2.3 -0.9 2.3 -2.3 l0 -4.96 c0 -1.56 -0.76 -2.36 -2.3 -2.36 l-0.52 0 c-1.52 0 -2.36 0.82 -2.36 2.36 l0 4.96 c0 1.46 0.92 2.3 2.36 2.3 z M45.984 8 l0 10.76 c0 0.42 -0.32 0.64 -0.64 0.64 c-0.24 0 -0.56 -0.18 -0.7 -0.44 c-1.5 -2.94 -2.62 -5.2 -4.12 -8.16 l0 7.96 c0 0.42 -0.32 0.64 -0.66 0.64 c-0.32 0 -0.66 -0.22 -0.66 -0.64 l0 -10.76 c0 -0.7 1 -0.74 1.22 -0.32 l4.22 8.34 l0 -8.02 c0 -0.42 0.32 -0.64 0.66 -0.64 s0.68 0.22 0.68 0.64 z M56.796 17.68 c-0.44 -0.82 0.68 -1.42 1.2 -0.6 c0.26 0.42 1.04 1.14 2.28 1.14 c0.52 0 1.82 -0.38 2 -1.86 c0.12 -0.9 -0.74 -1.78 -2.22 -2.52 c-2.08 -0.98 -3.66 -1.84 -3.66 -3.56 c0 -2.04 1.72 -3 3.56 -3 c1.66 0 2.58 1.02 2.9 1.54 c0.46 0.74 -0.54 1.46 -1.1 0.74 c-0.28 -0.36 -0.82 -0.96 -1.8 -0.96 c-1.1 0 -2.24 0.52 -2.24 1.68 c0 0.92 1.02 1.44 2.54 2.16 c1.78 0.88 3.64 1.74 3.36 4.08 c-0.22 1.84 -1.62 3.02 -3.34 3.02 c-1.3 0 -2.9 -0.7 -3.48 -1.86 z M73.968 15.86 l0 -7.86 c0 -0.42 0.34 -0.64 0.66 -0.64 c0.34 0 0.66 0.22 0.66 0.64 l0 7.86 c0 1.44 0.98 2.3 2.34 2.3 l0.5 0 c1.4 0 2.36 -0.98 2.36 -2.3 l0 -7.86 c0 -0.42 0.32 -0.64 0.66 -0.64 c0.32 0 0.66 0.22 0.66 0.64 l0 7.86 c0 2.06 -1.46 3.64 -3.68 3.64 l-0.5 0 c-2.22 0 -3.66 -1.54 -3.66 -3.64 z M92.66000000000001 18.76 l0 -10.76 c0 -0.42 0.32 -0.64 0.64 -0.64 s0.66 0.22 0.66 0.64 l0 10.06 l3.98 0 c0.44 0 0.68 0.34 0.68 0.68 s-0.24 0.66 -0.68 0.66 l-4.62 0 c-0.4 0 -0.66 -0.32 -0.66 -0.64 z M108.21200000000002 7.359999999999999 l6.04 0 c0.42 0 0.62 0.34 0.62 0.68 s-0.2 0.66 -0.62 0.66 l-2.28 0 l0 10.06 c0 0.42 -0.34 0.64 -0.68 0.64 s-0.66 -0.22 -0.66 -0.64 l0 -10.06 l-2.42 0 c-0.42 0 -0.62 -0.32 -0.62 -0.66 s0.2 -0.68 0.62 -0.68 z M130.96400000000003 18.86 l-0.78 -2.54 l-3.72 0 l-0.74 2.5 c-0.26 0.86 -1.58 0.6 -1.3 -0.28 c1.04 -3.5 2.06 -7.06 3.08 -10.6 c0.12 -0.38 0.44 -0.58 0.76 -0.58 c0.3 0 0.62 0.2 0.74 0.58 l3.18 10.6 c0.22 0.76 -0.96 1.18 -1.22 0.32 z M128.30400000000003 10.06 l-1.44 4.92 l2.94 0 c-0.5 -1.68 -0.96 -3.12 -1.5 -4.92 z M149.39600000000002 8 l0 10.76 c0 0.42 -0.32 0.64 -0.64 0.64 c-0.24 0 -0.56 -0.18 -0.7 -0.44 c-1.5 -2.94 -2.62 -5.2 -4.12 -8.16 l0 7.96 c0 0.42 -0.32 0.64 -0.66 0.64 c-0.32 0 -0.66 -0.22 -0.66 -0.64 l0 -10.76 c0 -0.7 1 -0.74 1.22 -0.32 l4.22 8.34 l0 -8.02 c0 -0.42 0.32 -0.64 0.66 -0.64 s0.68 0.22 0.68 0.64 z M160.12800000000004 7.359999999999999 l6.04 0 c0.42 0 0.62 0.34 0.62 0.68 s-0.2 0.66 -0.62 0.66 l-2.28 0 l0 10.06 c0 0.42 -0.34 0.64 -0.68 0.64 s-0.66 -0.22 -0.66 -0.64 l0 -10.06 l-2.42 0 c-0.42 0 -0.62 -0.32 -0.62 -0.66 s0.2 -0.68 0.62 -0.68 z M176.74000000000004 17.68 c-0.44 -0.82 0.68 -1.42 1.2 -0.6 c0.26 0.42 1.04 1.14 2.28 1.14 c0.52 0 1.82 -0.38 2 -1.86 c0.12 -0.9 -0.74 -1.78 -2.22 -2.52 c-2.08 -0.98 -3.66 -1.84 -3.66 -3.56 c0 -2.04 1.72 -3 3.56 -3 c1.66 0 2.58 1.02 2.9 1.54 c0.46 0.74 -0.54 1.46 -1.1 0.74 c-0.28 -0.36 -0.82 -0.96 -1.8 -0.96 c-1.1 0 -2.24 0.52 -2.24 1.68 c0 0.92 1.02 1.44 2.54 2.16 c1.78 0.88 3.64 1.74 3.36 4.08 c-0.22 1.84 -1.62 3.02 -3.34 3.02 c-1.3 0 -2.9 -0.7 -3.48 -1.86 z"></path></g>
			</g>
		</svg>
	